<svg width="69" height="119" viewBox="0 0 69 119" fill="none" xmlns="http://www.w3.org/2000/svg">
<path d="M3.65802 62.6228C3.65802 58.2682 7.18815 54.7381 11.5428 54.7381H21.793V110.72C21.793 115.075 18.2629 118.605 13.9082 118.605H3.65802V62.6228Z" fill="#231A16"/>
<path d="M11.5428 72.6839C7.18815 72.6839 3.65802 69.1538 3.65802 64.7992V62.4337C3.65802 58.0791 7.18815 54.549 11.5428 54.549H30.8605C35.2151 54.549 38.7452 58.0791 38.7452 62.4337V64.7992C38.7452 69.1538 35.2151 72.6839 30.8605 72.6839H11.5428Z" fill="#231A16"/>
<path d="M19.0333 98.1045C14.6787 98.1045 11.1486 94.5743 11.1486 90.2197V87.8543C11.1486 83.4996 14.6787 79.9695 19.0333 79.9695H38.351C42.7057 79.9695 46.2358 83.4996 46.2358 87.8543V90.2197C46.2358 94.5743 42.7057 98.1045 38.351 98.1045H19.0333Z" fill="#231A16"/>
<path d="M45.9896 59.9655L50.5694 67.7915L50.5694 67.7915L45.9896 59.9655ZM55.8397 49.9267L47.9282 45.4963L47.9282 45.4963L55.8397 49.9267ZM59.252 36.2827L68.3176 36.0983L59.252 36.2827ZM55.2875 22.7888L63.0122 18.0403L63.0122 18.0403L55.2875 22.7888ZM45.0372 13.159L49.2949 5.15324L49.2949 5.15324L45.0372 13.159ZM31.3224 10.0435L30.9412 0.984068L31.3224 10.0435ZM13.0026 6.68023C8.79436 9.39477 7.58343 15.0068 10.298 19.2151C13.0125 23.4234 18.6246 24.6343 22.8329 21.9198L13.0026 6.68023ZM32.4005 72.7037C38.786 72.7124 45.0582 71.0167 50.5694 67.7915L41.4098 52.1396C38.6845 53.7345 35.5829 54.5731 32.4252 54.5688L32.4005 72.7037ZM50.5694 67.7915C56.0806 64.5663 60.6311 59.9285 63.7511 54.3571L47.9282 45.4963C46.3854 48.2514 44.1351 50.5448 41.4098 52.1396L50.5694 67.7915ZM63.7511 54.3571C66.8711 48.7857 68.4475 42.4825 68.3176 36.0983L50.1864 36.4672C50.2507 39.6242 49.4711 42.7412 47.9282 45.4963L63.7511 54.3571ZM68.3176 36.0983C68.1877 29.714 66.3562 23.4802 63.0122 18.0403L47.5628 27.5374C49.2165 30.2275 50.1222 33.3101 50.1864 36.4672L68.3176 36.0983ZM63.0122 18.0403C59.6681 12.6004 54.9327 8.15159 49.2949 5.15324L40.7796 21.1647C43.5675 22.6474 45.9092 24.8473 47.5628 27.5374L63.0122 18.0403ZM49.2949 5.15324C43.6571 2.15489 37.3211 0.715636 30.9412 0.984068L31.7036 19.103C34.8585 18.9703 37.9916 19.682 40.7796 21.1647L49.2949 5.15324ZM30.9412 0.984068C24.5613 1.2525 18.3687 3.21889 13.0026 6.68023L22.8329 21.9198C25.4864 20.2081 28.5487 19.2358 31.7036 19.103L30.9412 0.984068Z" fill="#231A16"/>
<circle cx="11.1486" cy="39.8216" r="10.2502" fill="#231A16"/>
<path d="M20.8797 36.5681C20.8797 35.2935 20.6287 34.0313 20.1409 32.8537C19.6531 31.6761 18.9381 30.6061 18.0368 29.7047C17.1355 28.8034 16.0655 28.0885 14.8879 27.6007C13.7103 27.1129 12.4481 26.8618 11.1734 26.8618C9.8988 26.8618 8.63663 27.1129 7.45901 27.6007C6.28139 28.0885 5.21138 28.8034 4.31007 29.7047C3.40876 30.6061 2.6938 31.6761 2.20601 32.8537C1.71822 34.0313 1.46716 35.2935 1.46716 36.5681L11.1734 36.5681H20.8797Z" fill="#231A16"/>
<rect x="8.35187" y="24.1531" width="5.98178" height="9.25483" rx="0.790046" fill="#231A16" stroke="#F6E117" stroke-width="1.35437" stroke-linejoin="round"/>
<path d="M0 37.4011C0 36.9049 0.402226 36.5027 0.898396 36.5027H21.5615C22.0577 36.5027 22.4599 36.9049 22.4599 37.4011V38.1481H0V37.4011Z" fill="#231A16"/>
</svg>
